<?xml version="1.0" standalone="no"?>
<!DOCTYPE svg PUBLIC "-//W3C//DTD SVG 20010904//EN"
 "http://www.w3.org/TR/2001/REC-SVG-20010904/DTD/svg10.dtd">
<svg version="1.0" xmlns="http://www.w3.org/2000/svg"
 width="440.000000pt" height="440.000000pt" viewBox="0 0 440.000000 440.000000"
 preserveAspectRatio="xMidYMid meet">
<metadata>
Created by potrace 1.14, written by Peter Selinger 2001-2017
</metadata>
<g transform="translate(0.000000,440.000000) scale(0.100000,-0.100000)"
fill="#000000" stroke="none">
<path d="M1927 3854 c-106 -16 -311 -66 -361 -89 -17 -7 -60 -25 -96 -40 -88
-35 -224 -113 -334 -192 -50 -36 -93 -68 -96 -72 -3 -3 -28 -27 -56 -51 -149
-132 -325 -375 -407 -560 -85 -192 -120 -315 -147 -516 -12 -89 -9 -398 4
-474 29 -159 50 -238 93 -355 30 -81 118 -263 139 -286 8 -8 14 -19 14 -24 0
-5 8 -17 17 -27 14 -16 15 -24 5 -52 -7 -18 -12 -49 -12 -69 l0 -37 -85 0
c-73 0 -88 -3 -106 -21 -30 -30 -23 -112 14 -168 l27 -41 -207 -2 c-207 -3
-208 -3 -211 -26 -3 -17 -10 -22 -31 -22 -55 0 -91 -12 -91 -30 0 -22 27 -26
305 -40 397 -19 559 -29 660 -40 182 -19 563 -28 1045 -24 261 2 489 6 505 8
17 3 90 7 162 11 73 3 139 7 145 9 7 3 193 7 413 10 220 4 445 9 500 11 381
19 529 28 589 36 100 14 103 22 16 39 -29 5 -68 10 -86 10 -26 0 -33 4 -36 23
-3 22 -4 22 -222 27 -197 4 -217 7 -201 20 50 41 71 154 35 190 -17 17 -33 20
-125 20 l-105 0 0 54 c0 51 3 58 49 108 55 61 88 122 121 227 28 88 47 111 95
111 27 0 43 -8 73 -38 47 -49 72 -62 117 -62 29 0 45 8 71 34 30 30 34 40 34
85 0 70 -19 109 -75 159 -43 37 -135 82 -170 82 -22 0 -23 9 -10 95 16 105 19
381 5 476 -66 447 -276 836 -599 1109 -30 25 -59 50 -65 55 -54 50 -377 235
-410 235 -4 0 -27 9 -51 20 -68 31 -268 80 -390 96 -137 17 -339 16 -468 -2z"/>
<path d="M457 3302 c-10 -10 -17 -28 -17 -40 0 -27 33 -62 58 -62 31 0 62 29
62 59 0 54 -68 82 -103 43z"/>
<path d="M3835 3280 c-4 -6 -2 -24 5 -40 9 -22 9 -33 0 -50 -17 -31 1 -47 34
-32 18 8 32 8 55 -1 38 -14 48 -4 33 35 -7 20 -8 37 -2 49 6 10 10 25 10 35 0
13 -6 15 -27 10 -36 -9 -53 -9 -79 -1 -13 4 -25 2 -29 -5z"/>
<path d="M238 2989 c-38 -21 -11 -74 34 -67 17 2 24 11 26 32 5 40 -23 57 -60
35z"/>
<path d="M4060 2915 c-26 -32 13 -81 48 -59 34 22 22 74 -18 74 -10 0 -23 -7
-30 -15z"/>
<path d="M149 1636 c-6 -13 -22 -29 -36 -35 -21 -9 -23 -14 -13 -26 7 -8 18
-15 25 -15 6 0 17 -11 23 -25 14 -31 30 -32 41 -1 5 13 19 26 30 29 27 7 27
34 0 42 -11 4 -24 18 -29 31 -12 31 -27 31 -41 0z"/>
<path d="M311 1326 c-7 -8 -11 -25 -9 -38 2 -18 9 -23 32 -23 36 0 56 27 40
53 -14 22 -48 27 -63 8z"/>
<path d="M3972 1168 c-28 -28 -7 -78 33 -78 27 0 45 18 45 45 0 27 -18 45 -45
45 -12 0 -26 -5 -33 -12z"/>
</g>
</svg>
